<?xml version="1.0" encoding="UTF-8"?> <!-- Generator: Adobe Illustrator 23.1.0, SVG Export Plug-In . SVG Version: 6.00 Build 0) --> <svg xmlns="http://www.w3.org/2000/svg" xmlns:xlink="http://www.w3.org/1999/xlink" version="1.1" id="Capa_1" x="0px" y="0px" viewBox="0 0 1619.52 733.2" style="enable-background:new 0 0 1619.52 733.2;" xml:space="preserve"> <style type="text/css"> .st0{fill:#03203A;} .st1{fill:#91CCD1;} .st2{fill:#094891;} .st3{fill:#0098BC;} </style> <g> <path class="st0" d="M139.53,385.98c6.58,8.18,12.98,16.51,19.79,24.49c8.28,9.7,17.1,18.89,27.35,26.62 c24.46,18.47,51.96,30.68,81.11,39.49c5.35,1.62,10.83,2.81,16.22,4.33c4.45,1.25,7.34,5.15,7.47,9.73 c0.13,4.54-2.63,8.8-6.99,10.03c-1.98,0.56-4.33,0.76-6.31,0.28c-40.15-9.71-77.58-25.34-109.8-51.8 c-14.57-11.96-26.62-26.4-38.62-40.84c-0.64-0.77-1.33-1.51-2-2.26c-0.35-0.19-0.69-0.38-1.04-0.57c-0.17,0.21-0.35,0.41-0.52,0.62 c0.35,0.15,0.69,0.29,1.04,0.44c16.22,27.37,36.98,50.65,62.77,69.34c19.96,14.47,41.86,25.02,65.5,32 c6.14,1.81,9.5,6.52,8.57,11.92c-1.1,6.43-7.06,10.23-13.45,8.4c-29.9-8.56-57.31-22.15-81.62-41.58 c-42.36-33.84-70.93-77.06-86.11-129.03c-2.35-8.05-3.51-14.61-4.21-24.97c-0.04-0.63-0.22-2.23-0.22-3.48 c-0.58-12.5-1.33-14.5-0.3-24.75c0.08-3.5,1.09-7.79,1.57-10.83c3.62-23.06,13.01-43.4,28.68-60.74 c17.58-19.45,39.45-32.01,64.32-39.63c5.08-1.56,9.61-0.02,12.3,3.76c2.65,3.73,2.83,8.68-0.22,12.21 c-1.56,1.8-3.94,3.33-6.23,3.99c-12.45,3.57-24.27,8.61-34.7,16.22c-5.92,4.32-10.02,8.06-14.87,14.52c-1.88,2.5-3.2,5.36-3.72,7.1 c-5.07,16.81-6.71,32.37-3.89,49.85c2.97,18.41,11.44,34.04,24.08,47.53c16.12,17.22,35.97,28.91,57.37,38.16 c28.13,12.16,57.52,19.8,87.84,23.95c6.04,0.83,10.09,5.51,9.63,11.34c-0.45,5.79-5.33,10.33-11.35,9.4 c-12.97-2.01-25.94-4.23-38.75-7.07c-19.42-4.31-38.23-10.64-56.48-18.59c-0.83-0.36-1.78-0.48-2.72-0.51 c32.93,23.4,69.76,37.46,108.9,46.05c2.59,0.57,5.22,0.94,7.78,1.58c5.4,1.33,8.78,6.52,7.8,11.79c-1.06,5.67-5.78,9.42-11.48,8.58 c-16.06-2.37-31.66-6.7-47.04-11.82c-29.96-9.96-58.16-23.39-83.3-42.76c-12.34-9.51-23.31-20.41-32.94-32.66 c-2.73-3.92-5.47-7.85-8.2-11.77c-0.28,0.2-0.56,0.41-0.85,0.61C134.29,378.42,136.91,382.2,139.53,385.98z M131.67,373.6 c0.08-0.08,0.14-0.14,0.21-0.21c-0.13-0.07-0.25-0.16-0.38-0.19c-0.05-0.01-0.13,0.12-0.19,0.18 C131.43,373.45,131.55,373.52,131.67,373.6z"></path> <path class="st1" d="M267.89,177.59c-6.17,3.94-12.7,7.41-18.43,11.91c-9.92,7.79-19.94,15.62-28.88,24.47 c-26.13,25.89-44.24,56.74-54.74,92.02c-2.05,6.88-6.95,9.97-13.28,8.26c-5.9-1.59-8.85-7.12-6.66-13.89 c3.2-9.87,6.51-19.74,10.53-29.3c8.71-20.71,20.57-39.59,34.94-56.85c14.5-17.42,31.22-32.42,49.93-45.21 c21.25-14.53,43.97-26.07,68.56-33.83c11.13-3.51,20.82-5.32,32.4-6.24c0.98-0.08,3.28-0.37,5.22-0.48 c8.13-0.39,11.31-0.19,18.5,0.19c4.82,0.25,10.02,1.12,14.41,1.81c22.95,3.59,43.14,12.99,60.47,28.56 c20.94,18.81,34.08,44.38,39.75,64.6c1.8,6.44-1.26,11.92-7.73,13.66c-5.3,1.43-10.91-2.17-12.46-8.08 c-3.23-12.35-8.24-23.99-15.77-34.25c-4.46-6.08-8.74-11.16-15.2-15.41c-2-1.32-4.75-2.82-7.66-3.93 c-13.47-5.16-27.99-5.76-42.32-4.51c-17.36,1.51-32.99,7.87-46.73,18.67c-19.84,15.61-32.93,36.23-43.36,58.76 c-11.33,24.45-18.51,50.21-23.66,76.58c-1.05,5.39-1.81,10.83-2.62,16.26c-0.91,6.14-6.06,10.48-11.58,9.58 c-5.19-0.85-9.92-5.29-8.96-12.69c2.45-18.92,6.24-37.56,11.96-55.73c4-12.71,8.95-25.12,13.49-37.66c0.36-1,0.83-1.97,1.24-2.95 c-0.29-0.16-0.58-0.32-0.87-0.48c-4.16,6.6-8.6,13.04-12.44,19.82c-17.01,30.08-28.25,62.26-34.63,96.18 c-1.07,5.69-6.58,9.77-11.76,8.77c-6.18-1.19-10.02-6.44-8.89-12.53c4.85-26.03,12.39-51.25,23.12-75.48 c8.66-19.56,19.1-38.08,32.34-54.97c11.35-14.48,24.44-27.05,39.65-37.4c0.58-0.39,1.09-0.88,1.63-1.33 c0.32-0.29,0.65-0.58,0.97-0.87c-0.13-0.11-0.25-0.23-0.38-0.34c-0.29,0.32-0.57,0.65-0.86,0.97c-5.33,3.53-11.09,6.57-15.92,10.69 c-12.16,10.38-24.31,20.84-35.71,32.04c-10.29,10.12-17.95,22.39-24.97,35.01c-11.76,21.15-20.21,43.61-26.39,66.95 c-0.49,1.87-0.79,3.79-1.35,5.63c-1.7,5.63-7.04,8.58-12.76,7.13c-5.33-1.35-8.65-6.76-7.36-12.31 c8.91-38.38,23.96-73.99,47.92-105.53c7.05-9.28,15.06-17.66,23.98-25.19c7.78-6.57,15.38-13.37,23.04-20.08 c0.2-0.18,0.25-0.53,0.37-0.81c0.38-0.24,0.76-0.48,1.14-0.71c0.09-0.03,0.2-0.05,0.27-0.1c0.04-0.03,0.03-0.14,0.04-0.21 c-0.11,0.1-0.23,0.2-0.34,0.29C268.73,177.2,268.31,177.4,267.89,177.59z M299.32,182.8l0.17,0.1l0.02-0.16L299.32,182.8z"></path> <path class="st2" d="M335.06,533.44c9.65-7.67,19.44-15.17,28.91-23.06c11.8-9.83,22.23-20.98,30.91-33.73 c16.75-24.61,28.05-51.64,36-80.19c0.87-3.14,1.56-6.33,2.4-9.47c1.43-5.34,6.61-8.66,11.91-7.68c5.53,1.02,9.7,6.08,8.36,11.58 c-2.67,10.96-5.55,21.91-9.19,32.58c-9.59,28.16-22.81,54.48-41.73,77.65c-11.87,14.53-26.13,26.6-40.41,38.64 c-0.78,0.66-1.55,1.32-2.32,1.99c-0.56,0.42-1.13,0.84-1.69,1.25c-0.31,0.31-0.61,0.62-0.92,0.93c-0.16,0.24-0.32,0.48-0.48,0.73 c-0.33,0.04-0.66,0.08-0.16,0.02c-0.4,0.34-0.16,0.14,0.09-0.07c0.26-0.15,0.53-0.3,0.79-0.45c0.39-0.22,0.77-0.44,1.16-0.66 c0.65-0.37,1.3-0.75,1.94-1.12c10.35-7.4,21.23-14.16,30.97-22.3c33.34-27.88,56.23-62.85,68.56-104.55 c2.02-6.85,7.68-10.3,13.82-8.47c5.85,1.75,8.39,7.66,6.34,14.45c-19,62.86-57.72,109.95-114.31,142.66 c-18.23,10.53-37.26,19.56-57.89,24.12c-27.87,6.16-55.82,6.78-83.31-2.6c-13.56-4.63-25.76-11.67-36.7-20.91 c-21.1-17.83-34.34-40.66-42.41-66.75c-1.77-5.74,0.45-10.96,5.23-13.27c4.44-2.14,9.88-0.86,12.88,3.22 c0.88,1.19,1.47,2.68,1.87,4.12c3.49,12.58,8.6,24.49,16.34,34.98c4.3,5.82,9.27,10.09,14.82,14.72c3.41,2.13,7.5,3.92,11.33,4.9 c21.02,5.35,41.94,5.91,62.5-2.1c18.84-7.34,33.26-20.3,45.26-36.22c15.91-21.11,26.16-45,34.03-70.01 c6-19.08,10.46-38.53,13.01-58.39c0.77-6.04,5.68-10.13,11.39-9.53c5.95,0.62,10.27,5.29,9.34,11.39 c-1.98,12.88-4.16,25.76-6.99,38.48c-4.43,19.91-11.01,39.18-19.14,57.9c-0.03,0.32-0.06,0.63-0.09,0.95 c0.24-0.15,0.49-0.31,0.73-0.46c9.6-12.77,17.1-26.76,23.63-41.27c10.5-23.3,18.24-47.49,22.87-72.64c0.85-4.6,3.11-8.04,7.76-9.27 c4.02-1.06,7.7-0.09,10.57,3.1c2.17,2.42,3.02,5.27,2.5,8.49c-2.88,17.85-7.73,35.2-13.71,52.22 c-9.57,27.25-22.13,52.97-39.63,76.11c-10.78,14.25-23.36,26.66-37.64,37.38c-0.45,0.36-0.9,0.72-1.35,1.08 c0.11,0.16,0.22,0.32,0.33,0.48C334.02,534.03,334.54,533.73,335.06,533.44z M331.74,535.53c0.46-0.34,0.93-0.67,1.39-1.01 c-0.12-0.17-0.23-0.33-0.35-0.5c-0.53,0.33-1.05,0.66-1.58,0.98c-0.43,0.24-0.86,0.48-1.29,0.72c0.06,0.14,0.13,0.28,0.19,0.43 C330.65,535.94,331.2,535.74,331.74,535.53z M357.24,479.92c-0.07-0.07-0.13-0.14-0.2-0.22c-0.07,0.07-0.13,0.14-0.2,0.21 c0.1,0.07,0.2,0.14,0.3,0.22C357.17,480.06,357.2,479.99,357.24,479.92z"></path> <path class="st3" d="M498.48,314.08c-7.28-10.31-13.94-21.14-21.95-30.84c-28.25-34.2-63.89-57.46-106.46-70.05 c-6.06-1.79-9.22-7.29-7.63-13.03c1.59-5.76,7.41-8.84,13.62-7.02c30.67,9.02,58.74,23.13,83.54,43.41 c40.3,32.97,68.43,74.47,82.83,124.35c9.54,33.05,8.97,66.54-5.53,98.72c-4.6,10.21-10.74,19.45-18.16,27.82 c-17.78,20.04-40,32.99-65.47,40.63c-6.3,1.89-12.04-1.22-13.61-6.94c-1.67-6.08,1.8-11.48,8.46-13.28 c12.72-3.44,24.62-8.8,35.18-16.62c5.16-3.71,8.49-7.3,11.68-11.55c0.49-0.47,2.5-3,4.26-7.53c6.94-22.01,9.8-41.02,2.78-63.56 c-5.73-18.41-16.95-33.06-31.44-45.39c-20.61-17.52-44.67-28.63-70.02-37.23c-21.18-7.19-42.9-12.16-65.05-15.29 c-6.67-0.94-10.39-5.85-9.43-12.19c0.88-5.85,6.24-9.29,12.76-8.41c33.01,4.44,64.86,13.09,95.43,26.35c0.31,0,0.63,0.01,0.94,0.02 c-0.18-0.16-0.35-0.32-0.53-0.47c-9.69-5.99-19.07-12.58-29.13-17.84c-27.17-14.21-56.04-23.68-86.18-29.28 c-5.98-1.11-9.57-6.36-8.55-12.44c0.95-5.64,6.55-9.35,12.72-8.1c8.09,1.64,16.2,3.25,24.17,5.36 c34.23,9.06,66.61,22.32,95.89,42.56c16.92,11.69,31.69,25.64,44.07,42.09c0.01,0.19,0.09,0.34,0.24,0.45 c2.22,3.07,4.45,6.14,6.67,9.21c0.16,0.13,0.32,0.27,0.49,0.4c-0.09-0.21-0.18-0.43-0.26-0.64c-2.08-3.22-4.15-6.44-6.23-9.66 c-0.02-0.13-0.09-0.22-0.21-0.27c-7.21-9.1-14.2-18.39-21.69-27.25c-7.7-9.11-15.96-17.7-25.45-25.08 c-20.66-16.07-43.78-27.5-68.35-36.06c-9.79-3.41-19.88-5.96-29.87-8.77c-5.77-1.62-9.35-7-8.06-12.53 c1.34-5.73,6.75-9.34,12.53-7.97c38.79,9.22,74.95,24.24,106.65,48.9c16.38,12.74,29.59,28.59,42.77,44.44 c0.32,0.39,0.67,0.77,1,1.15c0.24,0.43,0.48,0.87,0.72,1.3c0.14-0.06,0.27-0.11,0.41-0.17 C498.83,315.21,498.65,314.64,498.48,314.08z M436.26,317.03c-0.06-0.07-0.12-0.19-0.19-0.19c-0.07-0.01-0.14,0.11-0.22,0.17 c0.07,0.07,0.13,0.18,0.2,0.18C436.12,317.19,436.2,317.08,436.26,317.03z"></path> <path class="st0" d="M615.39,306.56c0,47.24,0,94.49,0,141.92c-7.26,0-14.37,0-21.7,0c0-57.15,0-114.44,0-171.97 c10.01,0,19.99-0.05,29.96,0.1c0.75,0.01,1.82,1.33,2.17,2.26c6.82,17.98,13.55,36,20.3,54.01c10.89,29.06,21.79,58.12,32.95,87.9 c18.25-48.43,36.28-96.31,54.32-144.19c10.47,0,20.77,0,31.29,0c0,57.24,0,114.45,0,171.87c-7.03,0-14.12,0-21.54,0 c0-47.3,0-94.69,0-142.08c-0.22-0.04-0.44-0.09-0.66-0.13c-17.82,47.45-35.64,94.9-53.45,142.35c-6.6,0-13.02,0-19.67,0 c-17.78-47.36-35.58-94.74-53.37-142.13C615.79,306.5,615.59,306.53,615.39,306.56z"></path> <path class="st0" d="M981.98,448.58c-7.86,0-15.3,0-22.91,0c0-57.31,0-114.54,0-171.93c7.57,0,15.07,0,22.88,0 c0,28.24,0,56.43,0,85.29c3.1-2.97,5.74-5.44,8.32-7.98c23.64-23.28,47.26-46.56,70.89-69.84c0.73-0.72,1.66-1.28,2.21-2.1 c3.52-5.18,8.51-5.98,14.35-5.62c6.81,0.42,13.66,0.1,21.18,0.1c-24.38,23.34-48.34,46.27-72.51,69.41 c25.06,34.11,50.07,68.16,75.48,102.74c-5.53,0-10.46,0-15.4,0c-3.78,0-7.56-0.11-11.33,0.05c-1.87,0.08-2.89-0.62-3.95-2.1 c-19.64-27.58-39.34-55.11-59.04-82.65c-0.47-0.65-0.97-1.28-1.64-2.14c-6.95,6.47-13.45,13.25-20.73,19.06 c-6.25,4.99-8.35,10.59-7.99,18.54c0.68,15.18,0.2,30.42,0.2,45.63C981.98,446.13,981.98,447.24,981.98,448.58z"></path> <path class="st0" d="M808.45,448.58c-7.81,0-15.45,0-23.5,0c22.35-57.42,44.63-114.63,66.99-172.07c8.18,0,16.32-0.05,24.45,0.1 c0.66,0.01,1.56,1.32,1.91,2.2c10.56,26.88,21.06,53.79,31.58,80.69c11.3,28.89,22.61,57.77,33.9,86.67 c0.29,0.74,0.47,1.51,0.77,2.5c-8.06,0-15.9,0.07-23.73-0.11c-0.85-0.02-2.09-1.34-2.45-2.32c-5.69-15.46-11.33-30.95-16.8-46.49 c-0.87-2.47-2.04-3.12-4.55-3.11c-22.15,0.1-44.3,0.09-66.45,0.01c-2.07-0.01-3,0.57-3.72,2.55c-5.83,15.95-11.8,31.86-17.72,47.78 C808.96,447.43,808.74,447.89,808.45,448.58z M893.12,377.4c-9.59-26.83-19.04-53.31-28.78-80.55 c-9.88,27.21-19.53,53.76-29.26,80.55C854.64,377.4,873.7,377.4,893.12,377.4z"></path> <path class="st0" d="M1275.81,448.58c-8.53,0-16.89,0-25.35,0c-5.99-16.47-12.01-32.89-17.9-49.35c-0.69-1.94-1.51-2.6-3.62-2.6 c-22.36,0.09-44.71,0.09-67.07,0c-2.25-0.01-3.09,0.76-3.83,2.77c-5.7,15.57-11.53,31.09-17.32,46.63 c-0.32,0.85-0.65,1.68-0.99,2.55c-7.74,0-15.39,0-23.45,0c0.77-2.04,1.46-3.91,2.18-5.77c21.28-54.7,42.57-109.4,63.81-164.12 c0.66-1.71,1.52-2.26,3.32-2.23c6.94,0.11,13.88,0.12,20.82-0.01c1.9-0.04,2.62,0.7,3.26,2.34 c21.76,55.83,43.57,111.63,65.36,167.45C1275.33,446.97,1275.54,447.75,1275.81,448.58z M1224.37,377.36 c-9.58-26.8-19.06-53.34-28.77-80.51c-9.9,27.27-19.52,53.78-29.23,80.51C1185.86,377.36,1204.88,377.36,1224.37,377.36z"></path> <path class="st0" d="M1406.52,276.56c8.53,0,16.89,0,25.55,0c22.35,57.19,44.72,114.44,67.25,172.1c-8.35,0-16.27,0.06-24.19-0.1 c-0.74-0.02-1.79-1.37-2.13-2.3c-5.69-15.46-11.36-30.94-16.85-46.48c-0.87-2.46-2.01-3.16-4.54-3.15c-22.15,0.1-44.29,0.1-66.44,0 c-2.11-0.01-3.03,0.65-3.73,2.56c-5.73,15.66-11.59,31.28-17.31,46.95c-0.7,1.91-1.56,2.64-3.69,2.58 c-6.83-0.17-13.67-0.06-20.91-0.06C1361.91,391.13,1384.21,333.84,1406.52,276.56z M1418.93,296.85 c-9.89,27.22-19.52,53.74-29.24,80.47c19.46,0,38.55,0,57.99,0C1438.12,350.56,1428.65,324.06,1418.93,296.85z"></path> <path class="st0" d="M1318.74,448.53c-7.6,0-15.01,0-22.55,0c0-57.34,0-114.55,0-171.89c7.53,0,14.95,0,22.55,0 C1318.74,333.87,1318.74,391.08,1318.74,448.53z"></path> </g> </svg> 