<!DOCTYPE svg PUBLIC "-//W3C//DTD SVG 1.1//EN" "http://www.w3.org/Graphics/SVG/1.1/DTD/svg11.dtd">
<!-- Uploaded to: SVG Repo, www.svgrepo.com, Transformed by: SVG Repo Mixer Tools -->
<svg fill="#fcb831" width="800px" height="800px" viewBox="0 0 32 32" version="1.1" xmlns="http://www.w3.org/2000/svg" transform="rotate(45)">
<g id="SVGRepo_bgCarrier" stroke-width="0"/>
<g id="SVGRepo_tracerCarrier" stroke-linecap="round" stroke-linejoin="round"/>
<g id="SVGRepo_iconCarrier"> <title>power-switch</title> <path d="M22.316 5.85c-0.103-0.057-0.226-0.091-0.357-0.091-0.414 0-0.75 0.336-0.75 0.75 0 0.283 0.157 0.53 0.389 0.657l0.004 0.002c3.69 2.030 6.149 5.893 6.149 10.329 0 6.489-5.261 11.75-11.75 11.75s-11.75-5.261-11.75-11.75c0-4.421 2.441-8.271 6.049-10.277l0.060-0.031c0.232-0.13 0.387-0.375 0.387-0.656 0-0.414-0.336-0.75-0.75-0.75-0.131 0-0.255 0.034-0.362 0.093l0.004-0.002c-4.135 2.296-6.887 6.638-6.887 11.622 0 7.317 5.932 13.249 13.249 13.249s13.249-5.932 13.249-13.249c0-5.003-2.773-9.358-6.865-11.613l-0.068-0.035zM15.95 14.779c0.414-0 0.75-0.336 0.75-0.75v0-12.029c0-0.414-0.336-0.75-0.75-0.75s-0.75 0.336-0.75 0.75v0 12.029c0 0.414 0.336 0.75 0.75 0.75v0z"/> </g>
</svg>